<svg width="857" height="856" viewBox="0 0 857 856" version="1.1" xmlns="http://www.w3.org/2000/svg" xmlns:xlink="http://www.w3.org/1999/xlink">
<title>logoJaune</title>
<desc>Created using Figma</desc>
<g id="Canvas" transform="translate(-2951 2356)">
<g id="logoJaune">
<g id="Vector">
<use xlink:href="#path0_fill" transform="translate(2956.12 -2351)" fill="#E8DF0F"/>
<use xlink:href="#path1_stroke" transform="translate(2956.12 -2351)" fill="#E8DF0F"/>
</g>
<g id="Vector 2">
<use xlink:href="#path2_stroke" transform="translate(3138.5 -2251)" fill="#252525"/>
</g>
<g id="S">
<use xlink:href="#path3_fill" transform="matrix(-0.225518 -1.67791 1.67791 -0.225518 2892.87 -1665.32)" fill="#E8DF0F"/>
</g>
<g id="S">
<use xlink:href="#path3_fill" transform="matrix(-0.225518 -1.67791 1.67791 -0.225518 2870.72 -1627.84)" fill="#E8DF0F"/>
</g>
<g id="S">
<use xlink:href="#path3_fill" transform="matrix(-0.225633 -1.6779 1.6779 -0.225633 2883.89 -1649.28)" fill="#252525"/>
</g>
<g id="Vector 3">
<use xlink:href="#path4_stroke" transform="translate(3283.75 -2000)" fill="#252525"/>
</g>
<g id="Vector 3.4">
<use xlink:href="#path5_stroke" transform="matrix(0.997003 0.0773598 -0.0628272 0.998024 3153.11 -2008.97)" fill="#252525"/>
</g>
<g id="Vector 3.1">
<use xlink:href="#path6_stroke" transform="matrix(0.998991 0.0449153 -0.0364528 0.999335 3453.48 -2041.08)" fill="#252525"/>
</g>
<g id="Vector 3.2">
<use xlink:href="#path7_stroke" transform="matrix(0.99991 -0.0134453 0.0109087 0.999941 3276.41 -1914.71)" fill="#252525"/>
</g>
<g id="Vector 7">
<use xlink:href="#path8_stroke" transform="matrix(0.999786 -0.0206666 0.0194366 0.999811 3447.16 -2033.73)" fill="#E8DF0F"/>
</g>
<g id="Vector 7.1">
<use xlink:href="#path9_stroke" transform="matrix(0.998862 -0.0477017 0.038716 0.99925 3276 -1997.08)" fill="#E8DF0F"/>
</g>
<g id="Vector 7.2">
<use xlink:href="#path10_stroke" transform="matrix(0.999968 -0.00799166 0.0105968 0.999944 3139 -1965.85)" fill="#E8DF0F"/>
</g>
<g id="Vector 8">
<use xlink:href="#path11_stroke" transform="translate(3579 -1850)" fill="#E8DF0F"/>
</g>
</g>
</g>
<defs>
<path id="path0_fill" d="M -2.68555e-06 423.364C -2.68555e-06 189.703 189.703 0 423.364 0C 657.025 0 846.728 189.703 846.728 423.364C 846.728 657.025 657.025 846.728 423.364 846.728C 189.703 846.728 -2.68555e-06 657.025 -2.68555e-06 423.364Z"/>
<path id="path1_stroke" d="M 4.2335 423.364C 4.2335 192.041 192.041 4.2335 423.364 4.2335L 423.364 -4.2335C 187.365 -4.2335 -4.2335 187.365 -4.2335 423.364L 4.2335 423.364ZM 423.364 4.2335C 654.687 4.2335 842.494 192.041 842.494 423.364L 850.961 423.364C 850.961 187.365 659.363 -4.2335 423.364 -4.2335L 423.364 4.2335ZM 842.494 423.364C 842.494 654.687 654.687 842.495 423.364 842.495L 423.364 850.962C 659.363 850.962 850.961 659.363 850.961 423.364L 842.494 423.364ZM 423.364 842.495C 192.041 842.495 4.2335 654.687 4.2335 423.364L -4.2335 423.364C -4.2335 659.363 187.365 850.962 423.364 850.962L 423.364 842.495Z"/>
<path id="path2_stroke" d="M 57.8089 128.34L 62.7494 127.57L 52.8949 127.417L 57.8089 128.34ZM 127.927 578.536L 122.986 579.305L 132.892 579.129L 127.927 578.536ZM 197.037 0L 202.005 -0.562809L 192.073 -0.59307L 197.037 0ZM 270.897 652L 265.929 652.563L 275.838 652.765L 270.897 652ZM 357.367 93.5L 362.315 92.7803L 352.426 92.735L 357.367 93.5ZM 418.166 511.5L 413.218 512.22L 423.013 512.727L 418.166 511.5ZM 4.91401 436.923L 62.7229 129.263L 52.8949 127.417L -4.91401 435.077L 4.91401 436.923ZM 52.8685 129.109L 122.986 579.305L 132.867 577.766L 62.7494 127.57L 52.8685 129.109ZM 132.892 579.129L 202.002 0.59307L 192.073 -0.59307L 122.962 577.943L 132.892 579.129ZM 192.069 0.562809L 265.929 652.563L 275.865 651.437L 202.005 -0.562809L 192.069 0.562809ZM 275.838 652.765L 362.308 94.265L 352.426 92.735L 265.956 651.235L 275.838 652.765ZM 352.419 94.2197L 413.218 512.22L 423.114 510.78L 362.315 92.7803L 352.419 94.2197ZM 423.013 512.727L 449.847 406.727L 440.153 404.273L 413.319 510.273L 423.013 512.727Z"/>
<path id="path3_fill" d="M 22.7734 505.882C 18.4603 505.882 16.3037 503.812 16.3037 499.671L 22.7734 445.584C 23.4635 441.788 25.7064 439.718 29.502 439.373C 56.416 436.613 74.1862 432.386 82.8125 426.692C 91.4388 420.826 95.752 409.267 95.752 392.015C 95.752 374.762 91.3525 352.334 82.5537 324.729C 73.7549 296.953 68.0615 278.493 65.4736 269.349C 57.1924 240.019 53.0518 216.038 53.0518 197.405C 53.0518 178.6 56.071 162.555 62.1094 149.271C 68.1478 135.986 76.7741 125.376 87.9883 117.439C 109.727 102.257 138.97 94.666 175.718 94.666C 180.376 94.666 182.705 96.8226 182.705 101.136L 175.718 154.705C 175.028 159.018 172.871 161.347 169.248 161.692C 135.778 163.935 119.043 173.855 119.043 191.453C 119.043 207.671 126.117 239.588 140.264 287.205C 154.583 334.65 161.743 368.637 161.743 389.168C 161.743 466.977 115.42 505.882 22.7734 505.882Z"/>
<path id="path4_stroke" d="M 4.96413 180.098L 26.5816 0.597838L 16.6533 -0.597838L -4.96413 178.902L 4.96413 180.098Z"/>
<path id="path5_stroke" d="M 4.96406 180.016L 26.5937 0.598442L 16.6656 -0.598442L -4.96406 178.819L 4.96406 180.016Z"/>
<path id="path6_stroke" d="M 4.96639 206.058L 28.9115 0.578748L 18.9787 -0.578748L -4.96639 204.9L 4.96639 206.058Z"/>
<path id="path7_stroke" d="M 4.94522 146.454L 26.6933 0.738073L 16.8029 -0.738073L -4.94522 144.978L 4.94522 146.454Z"/>
<path id="path8_stroke" d="M 17.2124 -0.501624L -2.95777 118.429L 2.95777 119.433L 23.1279 0.501624L 17.2124 -0.501624Z"/>
<path id="path9_stroke" d="M 16.283 -0.479283L -2.96147 118.431L 2.96147 119.39L 22.2059 0.479283L 16.283 -0.479283Z"/>
<path id="path10_stroke" d="M 16.2792 -0.479116L -2.96149 118.451L 2.96149 119.409L 22.2022 0.479116L 16.2792 -0.479116Z"/>
<path id="path11_stroke" d="M -2.18236 1.21955C 0.925879 6.77521 7.15965 21.0429 7.50102 34.5714L 12.499 34.4286C 12.0403 19.9571 5.40745 4.55812 2.18236 -1.21955L -2.18236 1.21955Z"/>
</defs>
</svg>
